<?xml version="1.0" encoding="UTF-8"?>
<svg width="400" height="400" viewBox="0 0 400 400" fill="none" xmlns="http://www.w3.org/2000/svg">
  <rect width="400" height="400" fill="#F5F5F5"/>
  <path d="M200 220C222.091 220 240 202.091 240 180C240 157.909 222.091 140 200 140C177.909 140 160 157.909 160 180C160 202.091 177.909 220 200 220Z" fill="#D9D9D9"/>
  <path d="M120 260C120 226.863 146.863 200 180 200H220C253.137 200 280 226.863 280 260V280H120V260Z" fill="#D9D9D9"/>
  <path d="M160 100H240M160 120H240" stroke="#D9D9D9" stroke-width="10" stroke-linecap="round"/>
  <path d="M160 300H240M160 320H240" stroke="#D9D9D9" stroke-width="10" stroke-linecap="round"/>
</svg>
